<svg width="173" height="32" viewBox="0 0 173 32" fill="none" xmlns="http://www.w3.org/2000/svg">
<path fill-rule="evenodd" clip-rule="evenodd" d="M41.2049 15.8956H45.7074C45.4075 14.7517 44.5861 14.288 43.5857 14.288C42.4857 14.288 41.6041 14.8875 41.2049 15.8956ZM48.3489 17.8518H41.0452C41.3451 19.3251 42.5851 19.8679 43.6655 19.8679C45.0262 19.8679 45.608 19.0538 45.608 19.0538H48.1289C47.3679 20.991 45.5477 22.056 43.5858 22.056C40.8839 22.056 38.5228 20.0604 38.5228 17.0392C38.5228 14.0356 40.8643 12.1756 43.5058 12.1756C46.0675 12.1756 48.6699 13.8998 48.3489 17.8518Z" fill="#5423E7"/>
<path fill-rule="evenodd" clip-rule="evenodd" d="M73.1609 17.1164C73.1609 15.6051 72.2403 14.4236 70.7198 14.4236C69.198 14.4236 68.1777 15.6051 68.1777 17.1164C68.1777 18.6278 69.198 19.8093 70.7198 19.8093C72.2403 19.8093 73.1609 18.6278 73.1609 17.1164ZM65.5558 17.1353C65.5558 14.0356 68.0376 12.1756 70.7197 12.1756C73.4215 12.1756 75.7827 14.0545 75.7827 17.0959C75.7827 20.177 73.34 22.0558 70.6384 22.0558C67.917 22.0558 65.5558 20.177 65.5558 17.1353Z" fill="#5423E7"/>
<path fill-rule="evenodd" clip-rule="evenodd" d="M86.495 16.7097V21.9597H83.8322V17.2901C83.8322 16.9605 84.0736 14.5198 82.152 14.4238C81.2102 14.3654 79.53 14.8685 79.53 17.4069V21.9597H76.8887V12.2719H79.3134L79.3213 13.6168C79.3213 13.6168 80.4146 12.1756 82.4537 12.1756C85.035 12.1756 86.495 14.0356 86.495 16.7097Z" fill="#5423E7"/>
<path fill-rule="evenodd" clip-rule="evenodd" d="M96.2278 14.2296C95.3871 14.2296 95.0271 14.6366 95.0271 15.0437C95.0271 15.7016 95.9278 15.8956 96.5278 16.0124C98.3106 16.3798 100.111 16.9037 100.111 18.9559C100.111 20.9517 98.4099 22.056 96.3485 22.056C94.0478 22.056 92.2664 20.7008 92.1457 18.6468H94.6064C94.6671 19.2273 95.0678 19.983 96.2885 19.983C97.3085 19.983 97.5499 19.4609 97.5499 19.0538C97.5499 18.3361 96.8485 18.123 96.1678 17.9684C94.9878 17.716 92.4457 17.2523 92.4457 15.0437C92.4457 13.1443 94.3278 12.1756 96.2685 12.1756C98.5092 12.1756 99.9906 13.493 100.111 15.1209H97.6485C97.5692 14.7912 97.2499 14.2296 96.2278 14.2296Z" fill="#5423E7"/>
<path fill-rule="evenodd" clip-rule="evenodd" d="M108.202 17.1164C108.202 15.5074 107.301 14.5592 106.001 14.5592C104.78 14.5592 103.558 15.4111 103.558 17.1164C103.558 18.8203 104.78 19.6737 106.001 19.6737C107.301 19.6737 108.202 18.7241 108.202 17.1164ZM110.703 12.2719V25.8341H108.202V21.0099C107.562 21.7072 106.661 22.0558 105.619 22.0558C103.079 22.0558 100.957 20.0414 100.957 17.1164C100.957 14.19 103.079 12.1756 105.619 12.1756C107.616 12.1756 108.364 13.4731 108.364 13.4731L108.36 12.2719H110.703Z" fill="#5423E7"/>
<path fill-rule="evenodd" clip-rule="evenodd" d="M125.004 15.8956H129.507C129.207 14.7517 128.385 14.288 127.385 14.288C126.285 14.288 125.403 14.8875 125.004 15.8956ZM132.148 17.8518H124.843C125.145 19.3251 126.385 19.8679 127.465 19.8679C128.825 19.8679 129.407 19.0538 129.407 19.0538H131.928C131.167 20.991 129.347 22.056 127.385 22.056C124.683 22.056 122.322 20.0604 122.322 17.0392C122.322 14.0356 124.664 12.1756 127.305 12.1756C129.867 12.1756 132.47 13.8998 132.148 17.8518Z" fill="#5423E7"/>
<path fill-rule="evenodd" clip-rule="evenodd" d="M135.637 15.8956H140.139C139.839 14.7517 139.018 14.288 138.017 14.288C136.917 14.288 136.036 14.8875 135.637 15.8956ZM142.781 17.8518H135.477C135.777 19.3251 137.017 19.8679 138.097 19.8679C139.458 19.8679 140.039 19.0538 140.039 19.0538H142.561C141.799 20.991 139.979 22.056 138.017 22.056C135.316 22.056 132.955 20.0604 132.955 17.0392C132.955 14.0356 135.296 12.1756 137.937 12.1756C140.499 12.1756 143.102 13.8998 142.781 17.8518Z" fill="#5423E7"/>
<path fill-rule="evenodd" clip-rule="evenodd" d="M151.691 19.7905V21.9595H143.186V20.6803L148.01 14.4426H143.387V12.2719H151.492V13.5511L146.669 19.7905H151.691Z" fill="#5423E7"/>
<path fill-rule="evenodd" clip-rule="evenodd" d="M162.103 12.2719V20.991C162.103 23.6067 160.721 25.9321 157.3 25.9321C154.098 25.9321 152.357 23.8969 152.357 22.3668H154.858C154.858 22.3668 155.238 23.6651 157.22 23.6651C158.901 23.6651 159.602 22.7342 159.602 21.379V20.972C159.161 21.4565 158.321 22.056 156.821 22.056C154.198 22.056 152.558 20.2165 152.558 17.5235L152.536 12.2719H155.138V16.9415C155.138 18.2586 155.62 19.8096 157.28 19.8096C158.141 19.8096 159.561 19.4025 159.561 16.8247V12.2719H162.103Z" fill="#5423E7"/>
<path fill-rule="evenodd" clip-rule="evenodd" d="M36.6181 19.0515C36.6181 19.6556 36.8561 19.9048 37.2978 19.9048C37.6089 19.9048 37.8111 19.8687 38.1058 19.7803L38.2706 21.7712C37.7197 21.9478 37.187 22.0551 36.5074 22.0551C34.9479 22.0551 33.993 21.5582 33.993 19.4065V8.39743H36.6181V19.0515Z" fill="#5423E7"/>
<path fill-rule="evenodd" clip-rule="evenodd" d="M64.4263 16.7097V21.9597H61.7636V17.2902C61.7636 15.954 61.9039 14.2677 60.0624 14.4238C59.5834 14.4617 58.2618 14.6745 58.2618 17.4069V21.9597H55.6203V17.2902C55.6203 15.954 55.7604 14.2677 53.9191 14.4238C53.4383 14.4617 52.1185 14.6745 52.1185 17.4069V21.9597H49.4769V12.2719H51.9019L51.9041 13.6168C51.9041 13.6168 52.8308 12.1756 54.5594 12.1756C56.6423 12.1756 57.4598 13.7445 57.4598 13.7445C57.4598 13.7445 58.3566 12.1568 60.6441 12.1568C63.245 12.1568 64.4263 14.0168 64.4263 16.7097Z" fill="#5423E7"/>
<path fill-rule="evenodd" clip-rule="evenodd" d="M111.826 17.522V12.2719H114.489V16.9415C114.489 17.2711 114.248 19.7118 116.169 19.8078C117.111 19.8663 118.791 19.3631 118.791 16.8247V12.2719H121.432V21.9597H119.011L119 20.6149C119 20.6149 117.906 22.056 115.868 22.056C113.286 22.056 111.826 20.196 111.826 17.522Z" fill="#5423E7"/>
<path fill-rule="evenodd" clip-rule="evenodd" d="M15.7372 18.2753L21.1023 20.7558C21.7673 21.0633 22.2367 21.5795 22.4902 22.1717C23.1313 23.6711 22.255 25.2047 20.8795 25.7563C19.5036 26.3075 18.0374 25.9528 17.3706 24.3934L15.0357 18.9188C14.8548 18.4945 15.3093 18.0775 15.7372 18.2753Z" fill="#FFC233"/>
<path fill-rule="evenodd" clip-rule="evenodd" d="M16.0588 16.6696L21.597 14.576C23.4376 13.8803 25.4483 15.1967 25.4211 17.1096C25.4207 17.1346 25.4203 17.1595 25.4196 17.1847C25.3798 19.0474 23.4251 20.2994 21.625 19.6404L16.064 17.6051C15.6204 17.4428 15.6171 16.8365 16.0588 16.6696Z" fill="#FFC233"/>
<path fill-rule="evenodd" clip-rule="evenodd" d="M15.7487 15.9445L21.193 13.6311C23.0022 12.8623 23.4613 10.5549 22.0444 9.2217C22.0258 9.20414 22.0072 9.18679 21.9885 9.16945C20.5993 7.88003 18.3029 8.33402 17.512 10.0324L15.0689 15.2795C14.874 15.698 15.3145 16.1289 15.7487 15.9445Z" fill="#FFC233"/>
<path fill-rule="evenodd" clip-rule="evenodd" d="M14.3477 15.0303L16.3271 9.60292C16.5725 8.92997 16.527 8.24369 16.2733 7.65155C15.6308 6.1527 13.891 5.66888 12.5156 6.22124C11.1404 6.77382 10.3634 8.02875 11.0314 9.58748L13.3816 15.0561C13.5638 15.4799 14.1899 15.4632 14.3477 15.0303Z" fill="#FFC233"/>
</svg>
