<svg width="86" height="32" viewBox="0 0 86 32" fill="none" xmlns="http://www.w3.org/2000/svg">
<path fill-rule="evenodd" clip-rule="evenodd" d="M61.2388 14.9667C61.0405 16.2693 60.0456 16.2693 59.0835 16.2693H58.5359L58.9199 13.8372C58.943 13.6903 59.0698 13.582 59.2189 13.582H59.4697C60.1247 13.582 60.7434 13.582 61.0625 13.9551C61.2533 14.1784 61.3109 14.5093 61.2388 14.9667ZM60.82 11.5682H57.1911C56.943 11.5682 56.7318 11.7488 56.693 11.9939L55.2258 21.299C55.1968 21.4825 55.3386 21.6485 55.5246 21.6485H57.3865C57.5601 21.6485 57.7081 21.5221 57.735 21.3505L58.151 18.7126C58.1898 18.4675 58.401 18.287 58.6492 18.287H59.7974C62.1877 18.287 63.5674 17.1301 63.928 14.8375C64.0902 13.8348 63.9344 13.0469 63.4648 12.4953C62.9487 11.8889 62.0343 11.5682 60.82 11.5682Z" fill="#2790C3"/>
<path fill-rule="evenodd" clip-rule="evenodd" d="M69.2447 18.3071C69.0771 19.3001 68.2889 19.9666 67.2835 19.9666C66.7794 19.9666 66.376 19.8045 66.1166 19.4976C65.8596 19.1933 65.763 18.7598 65.8446 18.277C66.0009 17.293 66.8018 16.6049 67.7918 16.6049C68.2851 16.6049 68.6858 16.7687 68.9503 17.0784C69.2165 17.3904 69.3209 17.8268 69.2447 18.3071ZM71.6664 14.9251H69.9288C69.78 14.9251 69.6532 15.0332 69.6301 15.1804L69.5537 15.6663L69.4323 15.4902C69.0558 14.944 68.2173 14.7615 67.3795 14.7615C65.46 14.7615 63.8201 16.2163 63.5009 18.2568C63.3349 19.2746 63.5706 20.2473 64.1476 20.9263C64.678 21.5501 65.4347 21.8098 66.3362 21.8098C67.8836 21.8098 68.7418 20.8157 68.7418 20.8157L68.6643 21.2986C68.6352 21.4823 68.777 21.6485 68.9632 21.6485H70.5278C70.7759 21.6485 70.9872 21.4681 71.0259 21.223L71.9651 15.2745C71.9942 15.0909 71.8524 14.9251 71.6664 14.9251Z" fill="#2790C3"/>
<path fill-rule="evenodd" clip-rule="evenodd" d="M73.7146 11.8238L72.2251 21.299C72.1963 21.4826 72.3381 21.6485 72.5241 21.6485H74.0219C74.27 21.6485 74.4813 21.468 74.52 21.223L75.9886 11.9179C76.0174 11.7343 75.8755 11.5682 75.6896 11.5682H74.0133C73.8645 11.5682 73.7377 11.6767 73.7146 11.8238Z" fill="#2790C3"/>
<path fill-rule="evenodd" clip-rule="evenodd" d="M35.3563 14.9667C35.1579 16.2693 34.163 16.2693 33.201 16.2693H32.6534L33.0374 13.8372C33.0607 13.6903 33.1874 13.582 33.3361 13.582H33.5871C34.2422 13.582 34.8609 13.582 35.1798 13.9551C35.3708 14.1784 35.4285 14.5093 35.3563 14.9667ZM34.9376 11.5682H31.3085C31.0605 11.5682 30.8493 11.7488 30.8106 11.9939L29.3431 21.299C29.3142 21.4825 29.4561 21.6485 29.6419 21.6485H31.3746C31.6227 21.6485 31.834 21.468 31.8727 21.223L32.2687 18.7126C32.3072 18.4675 32.5185 18.287 32.7666 18.287H33.915C36.3051 18.287 37.6847 17.1301 38.0453 14.8375C38.2076 13.8348 38.052 13.0469 37.5824 12.4953C37.066 11.8889 36.1515 11.5682 34.9376 11.5682Z" fill="#27346A"/>
<path fill-rule="evenodd" clip-rule="evenodd" d="M43.3623 18.3071C43.1944 19.3001 42.4062 19.9666 41.4008 19.9666C40.897 19.9666 40.4934 19.8045 40.2342 19.4976C39.9772 19.1933 39.8803 18.7597 39.9619 18.277C40.1182 17.293 40.9191 16.6049 41.9091 16.6049C42.4027 16.6049 42.8031 16.7687 43.0676 17.0784C43.3341 17.3904 43.4385 17.8268 43.3623 18.3071ZM45.784 14.925H44.0464C43.8973 14.925 43.7708 15.0332 43.7474 15.1804L43.671 15.6663L43.5496 15.4902C43.1734 14.944 42.3346 14.7615 41.4971 14.7615C39.5773 14.7615 37.9374 16.2163 37.6182 18.2568C37.4522 19.2746 37.6879 20.2473 38.2652 20.9263C38.7953 21.5501 39.552 21.8098 40.4535 21.8098C42.0012 21.8098 42.8594 20.8157 42.8594 20.8157L42.7816 21.2986C42.7528 21.4823 42.8946 21.6485 43.0806 21.6485H44.6454C44.8935 21.6485 45.1048 21.4681 45.1433 21.223L46.0827 15.2745C46.1118 15.0909 45.97 14.925 45.784 14.925Z" fill="#27346A"/>
<path fill-rule="evenodd" clip-rule="evenodd" d="M55.0386 14.925H53.2921C53.1253 14.925 52.9689 15.0079 52.875 15.146L50.4659 18.6945L49.4447 15.2847C49.3809 15.0713 49.1845 14.925 48.9619 14.925H47.245C47.0375 14.925 46.8917 15.1289 46.9584 15.3251L48.8817 20.9702L47.0728 23.5226C46.9307 23.7229 47.0741 24 47.3195 24H49.0644C49.2299 24 49.3847 23.9189 49.4789 23.7829L55.2875 15.4C55.4264 15.1994 55.283 14.925 55.0386 14.925Z" fill="#27346A"/>
<path fill-rule="evenodd" clip-rule="evenodd" d="M16.8698 23.3403L17.3576 20.247L17.3891 20.0756C17.4126 19.9265 17.4889 19.7902 17.6039 19.692C17.7189 19.5938 17.8655 19.5397 18.0167 19.5397H18.4041C19.0498 19.5397 19.6429 19.4707 20.1673 19.3346C20.7267 19.1897 21.2243 18.9638 21.6461 18.6638C22.0933 18.3458 22.4689 17.9346 22.7626 17.4421C23.0725 16.9224 23.3 16.2968 23.439 15.5828C23.5618 14.9523 23.5848 14.3878 23.5076 13.9049C23.4259 13.3947 23.2294 12.9594 22.9236 12.6107C22.7381 12.3995 22.5009 12.2165 22.2184 12.0668L22.2117 12.0632L22.2115 12.055C22.3102 11.4257 22.3064 10.9007 22.2003 10.4487C22.0936 9.9958 21.8777 9.58822 21.5396 9.20299C20.8391 8.4048 19.565 8 17.7528 8H12.776C12.6096 8 12.4481 8.05953 12.3216 8.16766C12.195 8.2758 12.1112 8.42601 12.0851 8.59041L10.0128 21.7315C9.99389 21.8514 10.0283 21.9732 10.1072 22.0652C10.1862 22.1577 10.301 22.2107 10.4223 22.2107H13.5099L13.5071 22.2253L13.2951 23.5699C13.2788 23.6744 13.3088 23.7805 13.3775 23.8607C13.4461 23.9411 13.5461 23.9874 13.6518 23.9874H16.2414C16.3867 23.9874 16.5275 23.9354 16.6379 23.841C16.7483 23.7465 16.8217 23.6156 16.8444 23.4722L16.8698 23.3403Z" fill="#27346A"/>
<path fill-rule="evenodd" clip-rule="evenodd" d="M22.2242 12.0555C22.2093 12.1506 22.1928 12.2473 22.1733 12.347C21.5171 15.7167 19.2716 16.8817 16.4038 16.8817H14.9434C14.5931 16.8817 14.2972 17.1368 14.2426 17.4829L13.2828 23.5681C13.2471 23.7948 13.4224 24 13.6518 24H16.2417C16.5481 24 16.8091 23.777 16.8568 23.4742L16.8823 23.3425L17.3701 20.249L17.4016 20.078C17.4494 19.7752 17.7103 19.5522 18.0168 19.5522H18.4041C20.913 19.5522 22.8775 18.5329 23.4516 15.5851C23.6914 14.3534 23.5674 13.3252 22.9331 12.6024C22.7413 12.3838 22.5025 12.203 22.2242 12.0555Z" fill="#2790C3"/>
<path fill-rule="evenodd" clip-rule="evenodd" d="M21.5373 11.7818C21.4373 11.7525 21.334 11.7262 21.2275 11.7026C21.121 11.6789 21.0116 11.658 20.8991 11.64C20.505 11.5765 20.0741 11.5462 19.6119 11.5462H15.7108C15.6151 11.5462 15.5238 11.568 15.4419 11.6071C15.262 11.6934 15.1284 11.8639 15.0956 12.0721L14.2665 17.3294L14.2426 17.4829C14.2972 17.1368 14.5931 16.8817 14.9434 16.8817H16.4038C19.2716 16.8817 21.5171 15.7167 22.1733 12.347C22.1928 12.2473 22.2093 12.1506 22.2242 12.0555C22.0584 11.9678 21.8783 11.8921 21.6849 11.8278C21.6364 11.8117 21.5873 11.7964 21.5373 11.7818Z" fill="#1F264F"/>
</svg>
