<svg width="70" height="32" viewBox="0 0 70 32" fill="none" xmlns="http://www.w3.org/2000/svg">
<path fill-rule="evenodd" clip-rule="evenodd" d="M59.7881 16.3338C59.7881 12.9159 58.1003 10.219 54.8745 10.219C51.635 10.219 49.675 12.9159 49.675 16.3071C49.675 20.3258 51.9889 22.3551 55.31 22.3551C56.9298 22.3551 58.1548 21.9947 59.0803 21.4873V18.8171C58.1548 19.271 57.0931 19.5514 55.7456 19.5514C54.4253 19.5514 53.2547 19.0975 53.105 17.522H59.7609C59.7609 17.3485 59.7881 16.6542 59.7881 16.3338ZM53.0642 15.0654C53.0642 13.5568 54.0034 12.9293 54.8609 12.9293C55.6911 12.9293 56.5759 13.5568 56.5759 15.0654H53.0642Z" fill="#635BFF"/>
<path fill-rule="evenodd" clip-rule="evenodd" d="M44.4211 10.219C43.0872 10.219 42.2297 10.8331 41.7533 11.2604L41.5764 10.4326H38.582V26L41.9847 25.2924L41.9983 21.514C42.4883 21.8611 43.2097 22.3551 44.4075 22.3551C46.8439 22.3551 49.0625 20.4326 49.0625 16.2003C49.0489 12.3285 46.8031 10.219 44.4211 10.219ZM43.6045 19.4179C42.8014 19.4179 42.325 19.1375 41.9983 18.7904L41.9847 13.8371C42.3386 13.45 42.8286 13.1829 43.6045 13.1829C44.8431 13.1829 45.7006 14.5447 45.7006 16.2937C45.7006 18.0828 44.8567 19.4179 43.6045 19.4179Z" fill="#635BFF"/>
<path fill-rule="evenodd" clip-rule="evenodd" d="M33.8998 9.43124L37.3162 8.71028V6L33.8998 6.70761V9.43124Z" fill="#635BFF"/>
<path d="M37.3162 10.4459H33.8998V22.1282H37.3162V10.4459Z" fill="#635BFF"/>
<path fill-rule="evenodd" clip-rule="evenodd" d="M30.2384 11.4339L30.0206 10.4459H27.0806V22.1282H30.4834V14.211C31.2864 13.1829 32.6475 13.3698 33.0695 13.5167V10.4459C32.6339 10.2857 31.0414 9.99199 30.2384 11.4339Z" fill="#635BFF"/>
<path fill-rule="evenodd" clip-rule="evenodd" d="M23.4328 7.5487L20.1117 8.24296L20.0981 18.9372C20.0981 20.9132 21.6089 22.3684 23.6234 22.3684C24.7395 22.3684 25.5562 22.1682 26.0053 21.9279V19.2176C25.5698 19.3911 23.4192 20.0053 23.4192 18.0293V13.2897H26.0053V10.4459H23.4192L23.4328 7.5487Z" fill="#635BFF"/>
<path fill-rule="evenodd" clip-rule="evenodd" d="M14.2317 13.8371C14.2317 13.3164 14.6673 13.1162 15.3886 13.1162C16.4231 13.1162 17.7298 13.4233 18.7642 13.9706V10.8331C17.6345 10.3925 16.5184 10.219 15.3886 10.219C12.6256 10.219 10.7881 11.6342 10.7881 13.9974C10.7881 17.6823 15.9603 17.0948 15.9603 18.6836C15.9603 19.2977 15.4159 19.498 14.6536 19.498C13.5239 19.498 12.0811 19.0441 10.9378 18.4299V21.6075C12.2036 22.1415 13.4831 22.3685 14.6536 22.3685C17.4848 22.3685 19.4311 20.9933 19.4311 18.6035C19.4175 14.6249 14.2317 15.3325 14.2317 13.8371Z" fill="#635BFF"/>
</svg>
